#!OML:ASF F:\VICON\USERDATA\INSTALL\rory3\rory3.ASF
:FULLY-SPECIFIED
:DEGREES
1784
root 1.59738 15.0673 -0.781748 -13.3755 1.68739 3.448
lowerback 19.43 -4.27187 9.09163
upperback 9.48785 -3.61207 15.0986
thorax 0.171992 -1.92193 12.4497
lowerneck 11.5057 -22.9514 -16.475
upperneck 5.63831 -32.784 15.793
head 5.19891 -16.4719 5.29184
rclavicle 4.77083e-015 -1.04958e-013
rhumerus 85.9316 -15.49 -47.866
rradius 55.7744
rwrist -45.8954
rhand -31.9048 4.25623
rfingers 7.12502
rthumb -5.15685 -25.661
lclavicle 4.77083e-015 -1.04958e-013
lhumerus 91.5052 10.2163 30.0703
lradius 59.4961
lwrist 69.7984
lhand -16.922 17.1031
lfingers 7.12502
lthumb 9.31062 46.8775
rfemur -3.19259 6.14382 8.10322
rtibia 43.1054
rfoot -20.5431 -11.974
rtoes -22.5732
lfemur -3.72289 0.956001 -27.09
ltibia 41.5797
lfoot -19.3738 6.67839
ltoes -7.67866
1785
root 1.58399 15.0732 -0.750983 -13.5447 1.67397 3.60936
lowerback 18.8811 -4.33489 8.75944
upperback 9.33626 -3.84295 14.9145
thorax 0.31664 -2.04504 12.4108
lowerneck 13.5308 -22.4038 -18.9002
upperneck 5.32822 -32.7389 17.9228
head 5.55994 -16.5898 6.25905
rclavicle 6.67916e-014 -6.36111e-014
rhumerus 85.6777 -15.0753 -47.7697
rradius 55.6401
rwrist -45.7393
rhand -32.1065 4.23726
rfingers 7.12502
rthumb -5.35151 -25.6752
lclavicle 6.67916e-014 -6.36111e-014
lhumerus 91.2019 9.65608 30.0801
lradius 59.4624
lwrist 69.5101
lhand -16.8342 17.1952
lfingers 7.12502
lthumb 9.39533 46.9658
rfemur -2.68898 6.18317 8.0296
rtibia 42.708
rfoot -20.3916 -12.2963
rtoes -24.2125
lfemur -3.2062 0.951274 -27.222
ltibia 41.2324
lfoot -19.3833 6.82537
ltoes -7.98005
1786
root 1.5682 15.0839 -0.718289 -13.7771 1.62279 3.60329
lowerback 18.2892 -4.39522 8.57556
upperback 9.31754 -4.07365 14.7663
thorax 0.632387 -2.16689 12.3204
lowerneck 11.7914 -22.8306 -16.3118
upperneck 6.79958 -32.6479 14.12
head 5.18331 -16.405 4.87313
rclavicle -4.77083e-015 -1.11319e-013
rhumerus 85.5349 -14.8159 -47.785
rradius 55.5591
rwrist -45.4463
rhand -31.9598 4.23329
rfingers 7.12502
rthumb -5.20989 -25.6827
lclavicle -4.77083e-015 -1.11319e-013
lhumerus 90.9852 9.29197 30.0316
lradius 59.4441
lwrist 69.451
lhand -16.9007 17.141
lfingers 7.12502
lthumb 9.33117 46.9145
rfemur -2.08327 6.29274 8.17926
rtibia 42.3039
rfoot -20.4386 -12.3373
rtoes -24.3217
lfemur -2.59836 0.972158 -27.1387
ltibia 40.8466
lfoot -19.3844 6.87297
ltoes -7.98647
1787
root 1.55011 15.0948 -0.685348 -14.0424 1.52601 3.46895
lowerback 17.7367 -4.43207 8.53388
upperback 9.29154 -4.23823 14.6446
thorax 0.904233 -2.24944 12.1696
lowerneck 11.5177 -22.9552 -15.5114
upperneck 7.58665 -32.6522 12.5286
head 5.07446 -16.3809 4.36304
rclavicle -1.74931e-014 2.54444e-014
rhumerus 85.204 -14.6997 -47.6176
rradius 55.5752
rwrist -45.2902
rhand -31.8056 4.31713
rfingers 7.12502
rthumb -5.06106 -25.6024
lclavicle -1.74931e-014 2.54444e-014
lhumerus 90.8633 9.04541 29.7851
lradius 59.3641
lwrist 69.6234
lhand -16.8325 16.4803
lfingers 7.12502
lthumb 9.39693 46.2509
rfemur -1.45106 6.4513 8.50374
rtibia 41.9
rfoot -20.4729 -12.3245
rtoes -23.696
lfemur -1.93414 0.974756 -26.9148
ltibia 40.4347
lfoot -19.3896 7.00909
ltoes -8.39203
1788
root 1.53248 15.1054 -0.652325 -14.3163 1.40917 3.39094
lowerback 17.2369 -4.46846 8.43068
upperback 9.2277 -4.39423 14.5128
thorax 1.10778 -2.32907 12.0461
lowerneck 11.8867 -22.896 -15.5416
upperneck 8.01016 -32.6162 11.9779
head 5.06101 -16.3784 4.26117
rclavicle -2.06736e-014 -2.54444e-014
rhumerus 84.8732 -14.4551 -47.4177
rradius 55.5778
rwrist -45.2501
rhand -31.7945 4.34327
rfingers 7.12502
rthumb -5.05033 -25.5765
lclavicle -2.06736e-014 -2.54444e-014
lhumerus 90.6754 8.74079 29.5612
lradius 59.3196
lwrist 69.8318
lhand -16.566 15.5601
lfingers 7.12502
lthumb 9.65407 45.3189
rfemur -0.816083 6.59297 8.75182
rtibia 41.4876
rfoot -20.4741 -12.3003
rtoes -23.0959
lfemur -1.25844 1.01822 -26.7515
ltibia 40.0244
lfoot -19.4155 7.14522
ltoes -8.96148
1789
root 1.51401 15.1189 -0.619616 -14.5792 1.27416 3.28986
lowerback 16.744 -4.52319 8.22674
upperback 9.03609 -4.56488 14.4168
thorax 1.17838 -2.42033 12.0309
lowerneck 13.4515 -22.5146 -16.7941
upperneck 7.96922 -32.4887 12.7
head 5.12118 -16.4018 4.73034
rclavicle -7.4743e-014 1.59028e-014
rhumerus 84.4051 -13.9282 -47.1644
rradius 55.5146
rwrist -45.2513
rhand -31.6782 4.06518
rfingers 7.12502
rthumb -4.93802 -25.8573
lclavicle -7.4743e-014 1.59028e-014
lhumerus 90.2233 8.20724 29.4294
lradius 59.5906
lwrist 70.218
lhand -16.7573 15.8104
lfingers 7.12502
lthumb 9.46953 45.5776
rfemur -0.203397 6.79938 9.03569
rtibia 41.0828
rfoot -20.5514 -12.0581
rtoes -21.4468
lfemur -0.587288 1.09433 -26.532
ltibia 39.6027
lfoot -19.4235 7.13409
ltoes -8.97556
1790
root 1.49622 15.1305 -0.586314 -14.8185 1.16767 3.24866
lowerback 16.2212 -4.57803 8.00428
upperback 8.8416 -4.74082 14.3194
thorax 1.2656 -2.51479 12.0213
lowerneck 15.7658 -21.821 -19.4878
upperneck 7.59237 -32.4117 15.1054
head 5.48937 -16.5223 5.82328
rclavicle 6.67916e-014 -9.54166e-015
rhumerus 83.8983 -13.4799 -46.7834
rradius 55.4993
rwrist -45.3685
rhand -31.5831 3.6508
rfingers 7.12502
rthumb -4.84623 -26.2738
lclavicle 6.67916e-014 -9.54166e-015
lhumerus 89.794 7.69867 29.3571
lradius 59.7012
lwrist 70.404
lhand -16.8574 16.3299
lfingers 7.12502
lthumb 9.37298 46.1015
rfemur 0.410112 6.98274 9.23355
rtibia 40.6789
rfoot -20.6971 -11.5784
rtoes -18.2623
lfemur 0.0670582 1.21393 -26.3712
ltibia 39.179
lfoot -19.4345 7.1618
ltoes -9.41629
1791
root 1.47808 15.1439 -0.552315 -15.0625 1.05781 3.1574
lowerback 15.7087 -4.5541 8.06646
upperback 8.89817 -4.80921 14.1641
thorax 1.58494 -2.54244 11.7518
lowerneck 15.4771 -21.934 -19.514
upperneck 8.28884 -32.5806 14.6558
head 5.70778 -16.5841 5.60865
rclavicle -7.95139e-015 3.18055e-014
rhumerus 83.6827 -13.5834 -46.4857
rradius 55.4053
rwrist -45.4033
rhand -31.724 3.69897
rfingers 7.12502
rthumb -4.98225 -26.2225
lclavicle -7.95139e-015 3.18055e-014
lhumerus 89.914 7.54623 29.302
lradius 59.4241
lwrist 70.0447
lhand -16.3388 15.9166
lfingers 7.12502
lthumb 9.87331 45.6651
rfemur 1.05617 7.11918 9.50687
rtibia 40.2279
rfoot -20.6951 -11.4859
rtoes -16.8145
lfemur 0.699387 1.3033 -26.1559
ltibia 38.7706
lfoot -19.4087 7.21193
ltoes -9.8084
1792
root 1.45825 15.1557 -0.520258 -15.2785 0.962394 3.00065
lowerback 15.217 -4.53532 8.18806
upperback 8.90894 -4.86363 14.0125
thorax 1.83611 -2.55833 11.4551
lowerneck 15.1949 -22.0642 -19.4363
upperneck 9.06243 -32.7441 14.0135
head 5.89973 -16.6428 5.33642
rclavicle -4.6118e-014 1.49486e-013
rhumerus 83.3695 -13.591 -46.3072
rradius 55.3732
rwrist -45.3128
rhand -31.8811 3.79043
rfingers 7.12502
rthumb -5.13391 -26.1274
lclavicle -4.6118e-014 1.49486e-013
lhumerus 90.0099 7.32707 29.2212
lradius 59.3628
lwrist 70.0128
lhand -16.3238 15.9363
lfingers 7.12502
lthumb 9.88779 45.6841
rfemur 1.65805 7.2038 9.86912
rtibia 39.7339
rfoot -20.5927 -11.818
rtoes -18.173
lfemur 1.27898 1.3571 -25.8605
ltibia 38.3779
lfoot -19.3432 7.17062
ltoes -9.43747
1793
root 1.43929 15.1664 -0.487723 -15.5099 0.853653 2.76136
lowerback 14.6542 -4.56278 8.32492
upperback 8.85564 -4.9811 13.88
thorax 2.06462 -2.60534 11.1778
lowerneck 15.2519 -22.0217 -19.2947
upperneck 9.79509 -32.6847 13.2071
head 5.95576 -16.6132 5.10393
rclavicle -3.18055e-015 -5.725e-014
rhumerus 82.8938 -13.2347 -46.339
rradius 55.4302
rwrist -45.0267
rhand -31.74 3.53925
rfingers 7.12502
rthumb -4.99766 -26.3818
lclavicle -3.18055e-015 -5.725e-014
lhumerus 89.9013 7.00503 29.0547
lradius 59.4466
lwrist 70.2264
lhand -16.7052 16.0098
lfingers 7.12502
lthumb 9.51982 45.7748
rfemur 2.30653 7.26854 10.3249
rtibia 39.1964
rfoot -20.3992 -12.2386
rtoes -20.6471
lfemur 1.89151 1.39564 -25.482
ltibia 37.9863
lfoot -19.339 7.16151
ltoes -9.45657
1794
root 1.42011 15.1781 -0.454235 -15.7268 0.766966 2.58622
lowerback 13.9799 -4.56665 8.38089
upperback 8.86325 -5.10942 13.7556
thorax 2.43009 -2.66241 10.9476
lowerneck 15.1187 -22.0135 -18.9698
upperneck 10.5999 -32.6022 12.2309
head 6.00276 -16.5621 4.79266
rclavicle 1.11319e-014 3.18055e-015
rhumerus 82.5444 -12.8672 -46.4946
rradius 55.4867
rwrist -44.6365
rhand -31.5074 3.57136
rfingers 7.12502
rthumb -4.77309 -26.3549
lclavicle 1.11319e-014 3.18055e-015
lhumerus 89.8316 6.80297 28.9284
lradius 59.3248
lwrist 70.0575
lhand -16.5668 15.6748
lfingers 7.12502
lthumb 9.65335 45.4336
rfemur 2.97535 7.39747 10.7191
rtibia 38.6604
rfoot -20.2297 -12.499
rtoes -21.4779
lfemur 2.5043 1.38709 -25.1994
ltibia 37.5845
lfoot -19.3411 7.22725
ltoes -9.75217
1795
root 1.39935 15.1919 -0.420635 -15.9021 0.722957 2.53035
lowerback 13.2625 -4.55844 8.23771
upperback 8.86019 -5.25037 13.6415
thorax 2.82665 -2.73623 10.8421
lowerneck 15.0373 -22.0252 -18.9636
upperneck 11.2329 -32.6117 11.559
head 6.10533 -16.5687 4.57637
rclavicle -1.66979e-014 9.54166e-015
rhumerus 82.3922 -12.6874 -46.3844
rradius 55.4535
rwrist -44.5805
rhand -31.4278 3.64786
rfingers 7.12502
rthumb -4.69625 -26.2801
lclavicle -1.66979e-014 9.54166e-015
lhumerus 89.749 6.61795 28.9091
lradius 59.3156
lwrist 70.0806
lhand -16.5254 15.9132
lfingers 7.12502
lthumb 9.69329 45.6701
rfemur 3.59865 7.55814 10.9808
rtibia 38.1241
rfoot -20.174 -12.6469
rtoes -21.2598
lfemur 3.08559 1.36319 -25.0478
ltibia 37.1625
lfoot -19.3498 7.24874
ltoes -9.96783
1796
root 1.37822 15.2037 -0.387553 -16.0664 0.645709 2.48462
lowerback 12.6421 -4.53984 8.07169
upperback 8.7806 -5.34595 13.5268
thorax 3.08251 -2.7873 10.7535
lowerneck 15.2774 -21.9964 -19.3644
upperneck 11.6092 -32.6873 11.2992
head 6.22433 -16.6326 4.53064
rclavicle 6.67916e-014 -7.31528e-014
rhumerus 82.334 -12.5834 -46.1699
rradius 55.2674
rwrist -44.6527
rhand -31.2121 3.39788
rfingers 7.12502
rthumb -4.48793 -26.5346
lclavicle 6.67916e-014 -7.31528e-014
lhumerus 89.6298 6.35068 28.8452
lradius 59.3635
lwrist 70.3001
lhand -16.5943 16.2789
lfingers 7.12502
lthumb 9.62682 46.039
rfemur 4.18507 7.71379 11.2257
rtibia 37.6005
rfoot -20.1807 -12.7021
rtoes -20.9808
lfemur 3.66228 1.36027 -24.9054
ltibia 36.7151
lfoot -19.3279 7.31398
ltoes -10.2587
1797
root 1.35708 15.2181 -0.351711 -16.198 0.571643 2.29001
lowerback 12.0506 -4.54481 8.10808
upperback 8.60989 -5.4279 13.4098
thorax 3.20324 -2.81858 10.5481
lowerneck 15.8608 -21.8887 -19.7515
upperneck 11.9264 -32.7127 11.1777
head 6.29063 -16.6848 4.57475
rclavicle -5.56597e-015 -9.22361e-014
rhumerus 82.1678 -12.3304 -46.1161
rradius 55.0754
rwrist -44.5765
rhand -31.091 3.24582
rfingers 7.12502
rthumb -4.37097 -26.6891
lclavicle -5.56597e-015 -9.22361e-014
lhumerus 89.454 5.95646 28.6841
lradius 59.3325
lwrist 70.3563
lhand -16.4289 16.1728
lfingers 7.12502
lthumb 9.78634 45.9254
rfemur 4.75784 7.80719 11.6369
rtibia 37.0452
rfoot -20.0861 -13.0262
rtoes -21.4664
lfemur 4.19858 1.32177 -24.5954
ltibia 36.2869
lfoot -19.2874 7.33206
ltoes -10.2809
1798
root 1.33671 15.2319 -0.315803 -16.3288 0.548294 2.10946
lowerback 11.6552 -4.56884 8.19898
upperback 8.32342 -5.47257 13.273
thorax 3.07682 -2.82572 10.3042
lowerneck 16.5299 -21.7795 -19.9224
upperneck 12.3617 -32.7118 10.8882
head 6.31793 -16.7219 4.57303
rclavicle 2.14687e-014 -1.90833e-014
rhumerus 81.8247 -12.0048 -45.9756
rradius 54.9305
rwrist -44.5483
rhand -31.1273 3.45817
rfingers 7.12502
rthumb -4.40607 -26.476
lclavicle 2.14687e-014 -1.90833e-014
lhumerus 89.1916 5.41427 28.6016
lradius 59.3836
lwrist 70.3912
lhand -16.3622 16.0939
lfingers 7.12502
lthumb 9.85074 45.8434
rfemur 5.36324 7.8778 12.0222
rtibia 36.4626
rfoot -19.9915 -13.3168
rtoes -21.841
lfemur 4.72579 1.24943 -24.3241
ltibia 35.8881
lfoot -19.24 7.34445
ltoes -10.2686
